/* XPM */
static char * 64x64_xpm[] = {
"64 64 256 2",
"  	c None",
". 	c #033D7E",
"+ 	c #053F66",
"@ 	c #004476",
"# 	c #0D416E",
"$ 	c #1A3D71",
"% 	c #193E6C",
"& 	c #00447C",
"* 	c #0F4079",
"= 	c #194062",
"- 	c #004773",
"; 	c #114275",
"> 	c #0E446B",
", 	c #0D4566",
"' 	c #1B4169",
") 	c #134472",
"! 	c #154662",
"~ 	c #1E4568",
"{ 	c #264860",
"] 	c #264F72",
"^ 	c #2A526F",
"/ 	c #2D526A",
"( 	c #295768",
"_ 	c #3A547A",
": 	c #34597B",
"< 	c #3D6073",
"[ 	c #3C637B",
"} 	c #456181",
"| 	c #4A6A84",
"1 	c #4B6F88",
"2 	c #54768D",
"3 	c #4A826F",
"4 	c #61819C",
"5 	c #6B88A1",
"6 	c #7994AA",
"7 	c #7B97A7",
"8 	c #799CA4",
"9 	c #809BB2",
"0 	c #86A9B2",
"a 	c #87B2A3",
"b 	c #A4AF9D",
"c 	c #96B1BB",
"d 	c #A2AFB1",
"e 	c #9BB3AB",
"f 	c #A4B1A5",
"g 	c #94B4B7",
"h 	c #9EB3A5",
"i 	c #A7B0AB",
"j 	c #A1B2AB",
"k 	c #A1B4A0",
"l 	c #FEA807",
"m 	c #FFA900",
"n 	c #E9AB2E",
"o 	c #FAAA06",
"p 	c #9EB3C1",
"q 	c #F4AB18",
"r 	c #F0AD17",
"s 	c #F6AD06",
"t 	c #A7B3B4",
"u 	c #FCAC00",
"v 	c #F2AF02",
"w 	c #9FB6B4",
"x 	c #ADB3A9",
"y 	c #E1B312",
"z 	c #EEB101",
"A 	c #EAB301",
"B 	c #F9AF00",
"C 	c #EDB01B",
"D 	c #F5B100",
"E 	c #E9B31E",
"F 	c #E3B525",
"G 	c #AEB7B3",
"H 	c #A8B9B2",
"I 	c #E8B241",
"J 	c #F4B12A",
"K 	c #9DBBC8",
"L 	c #E0B550",
"M 	c #EBB633",
"N 	c #ECB83E",
"O 	c #B9BBB8",
"P 	c #E8BA3A",
"Q 	c #E5BC36",
"R 	c #F4B839",
"S 	c #B4BFB7",
"T 	c #F2BE4C",
"U 	c #EFC14D",
"V 	c #F1C063",
"W 	c #BAC7C8",
"X 	c #EDC54F",
"Y 	c #E7C756",
"Z 	c #B2CAD5",
"` 	c #C1C9C0",
" .	c #EAC665",
"..	c #EAC95F",
"+.	c #F4C75D",
"@.	c #EACC53",
"#.	c #F1C77C",
"$.	c #BBD2E4",
"%.	c #C1D4C0",
"&.	c #C9D2CC",
"*.	c #F4D063",
"=.	c #EDD375",
"-.	c #F4D17C",
";.	c #F6D276",
">.	c #D4D5CF",
",.	c #F7D291",
"'.	c #FFD373",
").	c #FAD674",
"!.	c #A5ECA0",
"~.	c #CBDBE2",
"{.	c #D1DADC",
"].	c #CEDDD0",
"^.	c #AAF468",
"/.	c #F4DB90",
"(.	c #AFF183",
"_.	c #B7F076",
":.	c #A7F762",
"<.	c #A3F95B",
"[.	c #A1F962",
"}.	c #CDDEED",
"|.	c #C2EC83",
"1.	c #A7FA4B",
"2.	c #A8F671",
"3.	c #A4F86A",
"4.	c #A5FA54",
"5.	c #F9DD7F",
"6.	c #ABF85A",
"7.	c #A9F678",
"8.	c #9BFF4D",
"9.	c #A0FD55",
"0.	c #9EFD5D",
"a.	c #9AFF56",
"b.	c #BEF085",
"c.	c #A3FE4D",
"d.	c #B2F85D",
"e.	c #D7E2D0",
"f.	c #FFDD8C",
"g.	c #FADF87",
"h.	c #DDE1DC",
"i.	c #FFDBB5",
"j.	c #FFDF96",
"k.	c #FFDF9C",
"l.	c #D4E4EB",
"m.	c #C9F095",
"n.	c #F7E390",
"o.	c #FDDEB6",
"p.	c #FFDDBC",
"q.	c #F3E0C2",
"r.	c #B4FA7B",
"s.	c #B5F983",
"t.	c #F8E0B6",
"u.	c #FFE0A3",
"v.	c #B5FC68",
"w.	c #FFDFB0",
"x.	c #FBDFBC",
"y.	c #F9DFC2",
"z.	c #FEE0AA",
"A.	c #F6E1BC",
"B.	c #F3E3B6",
"C.	c #F2E5BE",
"D.	c #F5E4CB",
"E.	c #F8E6B3",
"F.	c #C1F99A",
"G.	c #F0E7CC",
"H.	c #FBEAA3",
"I.	c #E4EBE0",
"J.	c #FBEB9D",
"K.	c #C6FE80",
"L.	c #DBEBFF",
"M.	c #F5E9C8",
"N.	c #FFE8BD",
"O.	c #FCEBAA",
"P.	c #C6FD97",
"Q.	c #C4FF91",
"R.	c #FFECB3",
"S.	c #FCECBF",
"T.	c #D1FE9A",
"U.	c #CFFEA1",
"V.	c #FBECD6",
"W.	c #F7EED4",
"X.	c #D3FCB4",
"Y.	c #E5F1EC",
"Z.	c #E1F8B4",
"`.	c #DFF2F8",
" +	c #E8F0F2",
".+	c #CAFEC1",
"++	c #D8FCAF",
"@+	c #D2FEAE",
"#+	c #D9FF95",
"$+	c #DEFBAF",
"%+	c #DCFBB5",
"&+	c #FFEECF",
"*+	c #E1FBA9",
"=+	c #DBFDA9",
"-+	c #D5FFA9",
";+	c #FFF0C3",
">+	c #E0FABC",
",+	c #DAFF9D",
"'+	c #D8FFA3",
")+	c #DAFCBC",
"!+	c #FFF2B7",
"~+	c #E0FE9D",
"{+	c #DEFEA4",
"]+	c #D8FDCC",
"^+	c #DFFCC4",
"/+	c #E8FABE",
"(+	c #FFF1D7",
"_+	c #F1F3F0",
":+	c #FEF4C4",
"<+	c #FDF6B9",
"[+	c #FCF4D2",
"}+	c #E7FCC6",
"|+	c #FBF4DF",
"1+	c #EEFBC6",
"2+	c #F2F8D9",
"3+	c #FFF3E6",
"4+	c #E6FDCD",
"5+	c #FFF6CE",
"6+	c #E3FED3",
"7+	c #FFF5DA",
"8+	c #EDFCCE",
"9+	c #E8F9FF",
"0+	c #FAF7E7",
"a+	c #F8F7EE",
"b+	c #E4FFDB",
"c+	c #ECFED6",
"d+	c #FEFBC7",
"e+	c #E8FEF6",
"f+	c #FFF9E4",
"g+	c #F3FED7",
"h+	c #FFF7FD",
"i+	c #F1FFDE",
"j+	c #EFFFE4",
"k+	c #FFF9F1",
"l+	c #F9FBF8",
"m+	c #FFFBEB",
"n+	c #FFFDD9",
"o+	c #F6FCFE",
"p+	c #FDFAFF",
"q+	c #F0FEFE",
"r+	c #F6FFE6",
"s+	c #F4FFEC",
"t+	c #FFFDE0",
"u+	c #FEFFD3",
"v+	c #FDFEE7",
"w+	c #FEFDF3",
"x+	c #F5FFFA",
"y+	c #FFFCFB",
"z+	c #F8FFF4",
"A+	c #FBFFEE",
"B+	c #FFFEEE",
"C+	c #FCFEFB",
"D+	c #FFFDFF",
"E+	c #F9FFFF",
"F+	c #FFFFF5",
"G+	c #FEFFFC",
"D+D+D+G+G+G+G+G+G+G+G+G+G+G+G+D+D+D+D+y+G+G+G+G+G+G+G+G+G+G+G+G+G+G+G+G+G+G+G+G+G+G+G+G+G+G+G+G+G+G+G+G+G+G+G+G+G+G+G+G+G+G+G+G+",
"y+D+D+G+G+G+G+G+G+G+G+G+G+G+G+G+G+y+D+y+G+G+G+G+G+o+o+G+G+G+G+G+G+G+G+G+G+G+G+G+G+G+G+G+G+G+G+G+G+G+G+G+G+G+G+G+G+G+G+G+G+G+G+G+",
"G+G+G+G+G+G+G+G+G+G+G+G+G+G+G+G+G+G+G+D+D+D+G+G+G+G+G+G+G+G+G+G+G+G+G+G+G+G+G+G+G+G+G+G+G+G+G+G+G+G+G+G+G+G+G+G+G+G+G+G+G+G+G+G+",
"F+F+G+G+G+D+G+G+G+G+G+D+D+G+G+G+G+y+D+D+D+D+D+D+G+G+G+G+G+G+G+G+G+G+G+G+G+G+G+G+G+G+G+G+G+G+G+G+G+G+G+G+G+G+G+G+G+G+G+G+G+G+G+G+",
"F+F+G+G+G+D+D+G+G+G+y+D+D+D+G+G+G+D+D+D+D+D+D+y+G+G+G+G+G+G+G+G+G+G+G+G+G+G+G+G+G+G+G+G+G+G+G+G+G+G+G+G+G+G+G+G+G+G+G+G+G+G+G+G+",
"G+G+G+G+G+D+D+D+D+D+p+D+D+D+G+D+D+D+D+D+D+D+y+G+F+F+F+G+G+G+G+G+G+G+G+G+G+G+G+G+G+G+G+G+G+G+G+G+G+G+G+G+G+G+G+G+G+G+G+G+G+G+G+G+",
"G+G+G+G+G+y+D+D+D+D+y+G+F+G+G+G+G+G+G+o+D+D+y+G+F+F+F+G+G+G+G+G+G+G+G+G+G+G+G+G+G+G+G+G+G+G+G+G+G+G+G+G+G+G+G+G+G+G+G+G+G+G+G+G+",
"D+D+G+G+F+G+G+o+D+D+G+z+v+v+A+A+z+z+F+G+G+G+G+G+G+G+G+G+G+G+G+G+G+G+G+G+G+G+G+G+G+G+G+G+G+G+G+G+G+G+G+G+G+G+G+G+G+G+G+G+G+G+G+G+",
"D+D+D+G+G+G+G+G+o+G+A+r+g+8+8+c+g+i+r+A+z+F+G+G+D+D+D+G+G+G+G+G+G+G+G+G+G+G+G+G+G+G+G+G+G+G+G+G+G+G+G+G+G+G+G+G+G+G+G+G+G+G+G+G+",
"D+D+D+G+G+G+G+z+z+r+c+}+>+Z.Z.Z.>+/+4+c+i+s+z+G+o+D+p+D+G+G+G+G+G+G+G+G+G+G+G+G+G+G+G+G+G+G+G+G+G+G+G+G+G+G+G+G+G+G+G+G+G+G+G+G+",
"G+G+D+o+G+G+z+r+c+>+%+++++=+=+=+=+$+$+%+}+c+j+z+G+G+o+G+G+G+G+G+G+G+G+G+G+G+G+G+G+G+G+G+G+G+G+G+G+G+G+G+G+G+G+G+G+G+G+G+G+G+G+G+",
"m+F+D+D+o+G+A+8+++m.T.'+-+-+=+=+'+'+{+=+$+Z.}+g+r+z+F+G+G+G+G+G+G+G+G+G+G+G+G+G+G+G+G+G+G+G+G+G+G+G+G+G+G+G+G+G+G+G+G+G+G+G+G+G+",
"v+m+y+p+o+G+s+>+|._.K.#+U.-+-+=+'+'+,+,+'+=+%+/+8+g+v+G+G+G+G+G+G+G+G+G+G+G+G+G+G+G+G+G+G+G+G+G+G+G+G+G+G+G+G+G+G+G+G+G+G+G+G+G+",
"A+F+G+D+D+G+j+-+r.d.d.K.P.-+++++=+{+'+'+-+++$+Z.Z.}+i+z+G+G+G+o+G+G+G+G+G+G+o+G+G+G+G+G+G+o+o+o+o+G+G+G+G+G+G+G+G+G+D+G+G+G+F+F+",
"F+G+G+G+G+G+b+P.:.1.1.v.Q.U.-+++*+{+'+'+@+++$+*+$+%+4+A+F+G+G+G+G+G+G+G+G+G+G+G+G+G+y+y+G+o+p+o+o+G+G+G+F+w+G+G+G+G+G+D+G+F+F+F+",
"G+G+G+G+G+G+6+s.<.c.1.6.r.Q.U.-+=+{+'+'+-+-+{+~+~+-+)+r+F+F+F+F+G+G+G+G+G+G+G+G+G+y+D+D+p+p+D+D+o+G+G+G+G+F+F+F+F+G+G+D+G+G+G+G+",
"G+G+G+G+G+G+]+2.4.c.1.4.3.r.Q.T.=+=+{+'+-+-+,+#+#+'+%+2+m+m+m+m+m+3+0+0+m+m+m+m+a+k+w+w+w+G+y+y+y+p+p+D+D+G+F+m+F+G+G+D+G+G+G+y+",
"G+G+G+G+G+x+^+:.c.8.c.4.[.[.2.P.$+%+%+++++=+~+~+,+'+%+2+m+f+|+D.D.D.D.D.D.D.D.D.D.G.W.7+f+f+m+m+w+y+y+D+p+D+G+G+G+D+D+D+y+G+G+G+",
"G+G+o+G+G+x+)+6.8.8.c.c.4.0.3.U.}+4+4+^+>+%+$+*+=+X.^+2+|+G.G.q.A.x.x.x.x.A.q.q.A.C.C.C.C.M.M.W.|+0+w+y+G+y+D+D+D+D+D+D+D+G+G+G+",
"G+G+o+G+G+x+)+6.8.8.8.8.8.a.3.F.i+s+s+r+i+8+1+}+}+6+i+v+|+G.q.A.t.o.o.o.o.o.t.A.A.t.t.B.B.B.C.C.M.M.W.|+f+w+y+D+D+D+D+D+D+G+G+G+",
"G+o+o+G+G+G+>+6.8.8.8.8.8.8.[.F.j+G+G+F+z+A+v+r+r+z+z+m+|+G.q.A.t.o.w.w.w.o.t.t.x.y.x.A.A.t.B.B.B.B.C.C.C.W.0+k+y+G+G+G+o+G+o+o+",
"G+o+o+G+y+G+^+v.9.a.8.8.8.8.<.F.r+G+p+D+G+G+F+F+F+G+G+F+m+|+D.q.A.t.o.o.w.o.t.t.x.y.y.y.x.A.t.t.B.B.B.B.B.C.G.V.0+m+F+G+G+G+o+o+",
"G+G+G+y+D+G+4+r.<.9.c.8.8.8.<.F.r+G+p+y+G+G+G+G+G+G+G+w+F+m+|+D.q.q.A.A.A.t.t.A.A.A.A.A.A.A.A.x.x.x.x.x.x.x.q.q.q.V.f+w+G+G+G+o+",
"G+G+G+y+p+G+c+F.^.4.c.c.8.8.<.U.r+G+y+G+G+G+G+D+D+G+G+G+F+F+w+m+|+G.D.q.q.q.A.A.t.E.B.t.t.x.x.y.p.x.p.p.p.o.o.o.t.A.M.|+m+G+G+G+",
"o+G+F+y+p+G+j+X.2.4.c.c.a.9.:.@+r+y+y+F+G+o+o+G+G+G+G+y+y+G+G+F+w+0+0+|+G.q.q.q.B.E.E.B.t.t.x.x.i.o.w.w.z.u.k.k.u.z.w.C.|+F+G+y+",
"o+G+F+y+p+y+s+]+s.4.c.c.4.0.2.)+s+y+y+G+G+o+o+G+G+F+F+p+D+G+G+o+G+G+w+m+|+V.D.D.C.B.B.A.A.t.o.w.u.k.f.g.5.).'.'.;.f.k.E.&+m+y+p+",
"G+G+z+G+p+p+z+b+F.:.4.4.4.[.s.4+z+p+p+G+G+o+o+o+G+G+F+G+G+G+o+o+o+o+G+G+G+k+0+|+W.M.C.B.z.u.j.f.'.+.U Q Q F F M N I L -.E.m+y+p+",
"p+G+x+G+o+D+G+A+^+b.^.<.<._.++r+G+p+p+p+G+x+G+o+o+G+G+F+G+o+o+o+o+G+p+p+h+p+w+v+v+t+d+H.5.U R r q s s v v z A z q q q E ;.7+y+o+",
"p+p+G+x+G+D+p+w+t+X.(.7.7.F.4+s+G+h+h+p+G+G+G+o+o+o+G+F+G+p+G+G+F+w+y+p+p+p+m+u+!+J.).X F C v s o o u B s D D s o o o A ..(+y+o+",
"p+D+G+x+G+D+p+y+s+6+.+!.!.]+j+z+G+h+h+p+G+G+G+o+G+D+D+p+p+p+y+F+A+z+G+G+l+f+:+n.X J r v v D v v s s s s s s B u u B v y =.f+G+o+",
"p+p+G+z+F+y+p+p+x+e+a 3 3 a Y.e+G+y+p+p+D+G+o+G+G+D+D+p+D+D+y+y+y+l+m+n+<+5.X E r o l u u u u u B s s v v D u m B v y @.<+w+o+o+",
"h+p+G+z+F+F+p+p+o+K ( ! , [ K q+G+G+y+p+D+D+G+G+D+D+D+o+o+G+p+p+p+m+5+n.@.y z s o l l m m u u u u B B D D D u o v F Y J.t+p+o+o+",
"p+y+G+F+F+F+p+p+}.} ) * . $ : ~.x+z+w+y+D+D+G+G+G+y+G+z+x+o+o+G+t+O.*.M r o l l l o o s s v v B B B B u u o s C P =.<+t+w+o+o+G+",
"p+G+G+F+F+G+D+o+p ] @ * . . % 6 q+z+w+y+D+D+o+G+G+y+G+z+x+o+G+v+H.*.E v s o l o s s s v D D D D s s s o o q N  .n.d+t+F+G+G+G+G+",
"D+G+G+G+G+G+G+9+6 ~ # ; * . $ ^ `.x+w+l+y+D+o+G+l+p+y+G+o+p+m+:+..y z D B B B v v z D D B B s s s v r C C U /.;+n+A+w+G+w+m+F+G+",
"G+G+o+G+G+G+o+`.4 , > - - ; * = Z q+G+G+y+D+G+G+G+G+G+l+G+k+7+,.n r D B u u u B B B B B u u o s r C P ..g.O.t+F+G+G+o+G+F+m+G+p+",
"G+G+o+o+o+G+o+l.1 , > , , ) ; > 7 q+G+G+G+o+o+l+G+G+G+x+z+0+5+#.n s B B u o l u o o o o o o q J T ).H.:+t+m+G+o+o+o+o+G+l+F+p+p+",
"G+G+o+G+D+D+o+~.1 , > > > - ) ' | 9+q+l+w+G+o+ +h.&.` %.e.0+5+#.M A z z D B s o s s r n I V #.u.:+n+m+y+p+p+o+o+o+o+G+D+D+D+p+p+",
"G+G+G+D+D+G+o+~.| > @ ; ) - - ' : L.o+G+a+I.` t i x f f f >.v+:+g.Y Q P P N N N U +.;.j.R.5+t+v+A+F+G+D+p+p+G+G+D+G+G+D+o+G+o+o+",
"G+y+D+D+D+G+o+~.1 ) & * & ) > > _ }.q+Y.` x i i i f f d t W Y.z+A+7+&+N.N.E.S.;+5+[+t+v+A+F+z+z+z+z+G+G+G+p+y+y+p+F+F+D+G+G+G+G+",
"G+G+y+D+D+G+o+l.2 ' ; * * ; ) # ] $.{.S x i i i j f f d t W  +o+o+y+G+w+w+m+m+F+F+F+F+G+G+o+o+G+G+G+G+G+G+G+G+G+y+G+F+D+G+G+G+G+",
"G+G+G+G+G+o+q+`.4 = ) @ ; & ; ) / c w j i t d j j k f i i >.o+o+G+G+G+G+G+G+G+G+G+G+G+G+G+G+G+G+G+G+G+G+G+G+G+G+G+G+G+G+G+G+G+G+",
"G+G+G+G+G+o+q+q+9 ~ > @ ; & ; > / 8 w j j i i j j f f i O _+o+o+G+G+G+G+G+G+G+D+G+G+G+G+G+G+G+G+G+G+G+G+G+G+G+G+G+G+G+G+G+G+G+G+",
"G+G+G+G+G+G+o+q+p ^ > ) ; & ; + / 0 w j f j j j f f f G h.G+l+G+o+G+G+G+G+G+G+D+G+G+G+G+G+G+G+G+G+G+G+G+G+G+G+G+G+G+G+G+G+G+G+G+",
"G+G+G+G+G+G+G+o+}.| + ) @ ; ; > < g e h f f j j j f x &.l+G+G+G+G+G+G+G+G+G+G+D+G+G+G+G+G+G+G+G+G+G+G+G+G+G+G+G+G+G+G+G+G+G+G+G+",
"G+G+G+G+G+G+G+o+9+6 ~ + ) ; # = 2 g e h h f f j j G &._+G+l+G+G+G+G+G+G+G+G+G+G+G+G+G+G+G+G+G+G+G+G+G+G+G+G+G+G+G+G+G+G+G+G+G+G+",
"o+G+G+G+F+G+G+o+q+$.^ + > ) + ! 7 g e h k k f f H &._+o+o+o+G+G+l+G+G+G+G+G+G+G+G+G+G+G+G+G+G+G+G+G+G+G+G+G+G+G+G+G+G+G+G+G+G+G+",
"o+G+G+G+F+w+G+l+o+9+9 = = = = [ c w e f k b f S h.l+o+o+G+G+G+G+G+G+G+G+G+G+G+G+G+G+G+G+G+G+l+l+G+l+l+G+G+l+G+G+G+l+G+G+G+G+G+G+",
"G+G+G+G+G+F+G+G+o+q+`.6 / { < 7 c d H f f S ].Y.x+o+G+G+G+G+G+G+G+G+G+G+_+_+l+G+G+G+G+G+G+G+G+G+G+l+l+l+l+G+G+G+G+G+G+G+G+l+_+l+",
"G+G+G+G+G+G+G+y+G+o+q+`.Z c c p t d G S &.I.z+x+G+G+p+G+G+G+G+G+G+G+G+l+l+G+G+G+G+G+G+G+G+G+G+G+G+G+G+G+G+G+G+G+G+G+G+G+G+G+G+l+",
"D+D+D+y+G+G+G+G+o+o+o+q+q+q+ +{.{.{.h._+l+x+x+x+G+D+p+G+G+G+G+G+G+G+G+G+G+G+G+G+G+G+G+G+G+G+G+G+G+G+G+G+G+G+G+G+G+G+G+G+G+G+G+G+",
"D+D+D+D+G+G+G+G+G+G+G+G+l+G+G+G+o+p+p+p+o+l+G+G+G+D+D+G+G+G+G+G+G+G+G+G+G+G+G+G+G+G+G+G+G+G+G+G+G+G+G+G+G+G+G+G+G+G+G+G+G+G+G+G+",
"D+D+D+G+G+G+o+l+l+G+l+G+F+F+z+w+G+p+p+D+o+o+o+l+G+D+p+D+D+D+D+D+G+G+G+G+G+G+G+G+G+G+G+G+G+G+G+G+G+G+G+G+G+G+G+G+G+G+G+G+G+G+G+G+",
"D+D+G+G+G+G+o+o+G+l+G+G+w+F+F+F+y+p+D+p+D+o+l+G+y+D+D+D+D+D+D+D+G+G+G+G+G+G+G+G+G+G+G+G+G+G+G+G+G+G+G+G+G+G+G+G+G+G+G+G+G+G+G+G+",
"D+G+G+G+G+G+G+G+G+G+G+G+G+G+G+G+G+D+D+G+G+G+G+G+G+D+D+G+G+G+G+G+G+G+G+G+G+G+G+G+G+G+G+G+G+G+G+G+G+G+G+G+G+G+G+G+G+G+G+G+G+G+G+G+",
"G+G+G+G+G+G+G+G+G+G+G+G+G+G+G+G+G+G+G+G+G+G+G+G+G+G+G+G+G+G+G+G+G+G+G+G+G+G+G+G+G+G+G+G+G+G+G+G+G+G+G+G+G+G+G+G+G+G+G+G+G+G+G+G+",
"G+G+G+G+G+G+G+G+G+G+G+G+G+G+G+G+G+G+G+G+G+G+G+G+G+G+G+G+G+G+G+G+G+G+G+G+G+G+G+G+G+G+G+G+G+G+G+G+G+G+G+G+G+G+G+G+G+G+G+G+G+G+G+G+",
"G+G+G+G+G+G+G+G+G+G+G+G+G+G+G+G+G+G+G+G+G+G+G+G+G+G+G+G+G+G+G+G+G+G+G+G+G+G+G+G+G+G+G+G+G+G+G+G+G+G+G+G+G+G+G+G+G+G+G+G+G+G+G+G+",
"G+G+G+G+G+G+G+G+G+G+G+G+G+G+G+G+G+G+G+G+G+G+G+G+G+G+G+G+G+G+G+G+G+G+G+G+G+G+G+G+G+G+G+G+G+G+G+G+G+G+G+G+G+G+G+G+G+G+G+G+G+G+G+G+",
"G+G+G+G+G+G+G+G+G+G+G+G+G+G+G+G+G+G+G+G+G+G+G+G+G+G+G+G+G+G+G+G+G+G+G+G+G+G+G+G+G+G+G+G+G+G+G+G+G+G+G+G+G+G+G+G+G+G+G+G+G+G+G+l+",
"G+G+G+G+G+G+G+G+G+G+G+G+G+G+G+G+G+G+G+G+G+G+G+G+G+G+G+G+G+G+G+G+G+G+G+G+G+G+G+G+G+G+G+G+G+G+G+G+G+G+G+G+G+G+G+G+G+G+G+G+G+G+G+l+",
"G+G+G+G+G+G+G+G+G+G+G+G+G+G+G+G+G+G+G+G+G+G+G+G+G+G+G+G+G+G+G+G+G+G+G+G+G+G+G+G+G+G+G+G+G+G+G+G+G+G+G+G+G+G+G+G+G+G+G+G+l+G+G+G+",
"G+G+G+G+G+G+G+G+G+G+G+G+G+G+G+G+G+G+G+G+G+G+G+G+G+G+G+G+G+G+G+G+G+G+G+G+G+G+G+G+G+G+G+G+G+G+G+G+G+G+G+G+G+G+G+l+l+G+G+G+G+G+G+G+",
"G+G+G+G+G+G+G+G+G+G+G+G+G+G+G+G+G+G+G+G+G+G+G+G+G+G+G+G+G+G+G+G+G+G+G+G+G+G+G+G+G+G+G+G+G+G+G+G+G+G+G+G+G+G+G+l+l+G+G+G+G+G+G+G+"};
